<svg width="166" height="156" viewBox="0 0 166 156" fill="none" xmlns="http://www.w3.org/2000/svg">
<rect x="10" y="17" width="25" height="122" fill="#3A55A4"/>
<rect x="5" y="10" width="35" height="7" fill="#3A55A4"/>
<rect width="45" height="10" fill="#3A55A4"/>
<rect y="146" width="45" height="10" fill="#3A55A4"/>
<rect x="5" y="139" width="35" height="7" fill="#3A55A4"/>
<rect x="33" y="68" width="28" height="20" fill="#3A55A4"/>
<rect x="106" y="68" width="28" height="20" fill="#3A55A4"/>
<rect x="131" y="17" width="25" height="122" fill="#3A55A4"/>
<rect x="126" y="10" width="35" height="7" fill="#3A55A4"/>
<rect x="121" width="45" height="10" fill="#3A55A4"/>
<rect x="121" y="146" width="45" height="10" fill="#3A55A4"/>
<rect x="126" y="139" width="35" height="7" fill="#3A55A4"/>
<circle cx="83.5" cy="78.5" r="37.5" fill="#EE3926"/>
<rect x="79" y="63" width="10" height="30" fill="#F5F5F5"/>
<rect x="69" y="83" width="10" height="30" transform="rotate(-90 69 83)" fill="#F5F5F5"/>
</svg>
