<svg xmlns="http://www.w3.org/2000/svg" version="1.1" xmlns:xlink="http://www.w3.org/1999/xlink" xmlns:svgjs="http://svgjs.com/svgjs" width="1440" height="640" preserveAspectRatio="none" viewBox="0 0 1440 640"><g mask="url(&quot;#SvgjsMask1034&quot;)" fill="none"><rect width="1440" height="640" x="0" y="0" fill="#0e2a47"></rect><use xlink:href="#SvgjsG1047" transform="translate(0, 0)" fill="#0f457b"></use><use xlink:href="#SvgjsG1047" transform="translate(0, 480)" fill="#0f457b"></use><use xlink:href="#SvgjsG1047" transform="translate(480, 0)" fill="#0f457b"></use><use xlink:href="#SvgjsG1047" transform="translate(480, 480)" fill="#0f457b"></use><use xlink:href="#SvgjsG1047" transform="translate(960, 0)" fill="#0f457b"></use><use xlink:href="#SvgjsG1047" transform="translate(960, 480)" fill="#0f457b"></use></g><defs><mask id="SvgjsMask1034"><rect width="1440" height="640" fill="#ffffff"></rect></mask><g id="SvgjsG1039"><path d="M7.713 15.485C3.459 15.485 0 12.025 0 7.768 0 3.513 3.459 0.051 7.713 0.051S15.432 3.513 15.432 7.768c0 4.257-3.465 7.716-7.719 7.717z m0-1.91c3.201 0 5.81-2.604 5.81-5.809 0-3.199-2.61-5.807-5.81-5.807-3.202 0-5.804 2.609-5.804 5.807-0.001 3.206 2.602 5.809 5.804 5.809z"></path><path d="M7.753 8.787a0.574 0.574 0 0 1-0.554-0.042 0.578 0.578 0 0 1-0.259-0.399L6.931 3.862a0.58 0.58 0 0 1 1.162 0v3.478l2.975-1.4a0.578 0.578 0 0 1 0.773 0.275c0.138 0.292 0.011 0.637-0.276 0.774l-3.81 1.798z"></path></g><g id="SvgjsG1042"><path d="M15.233 9.431c0.295 0 0.569-0.239 0.61-0.532 0 0 0.056-0.411 0.056-0.899s-0.056-0.899-0.056-0.899c-0.041-0.292-0.315-0.531-0.61-0.53h-1.524c-0.295 0-0.602-0.188-0.681-0.418s-0.188-0.967 0.021-1.176l1.078-1.077c0.209-0.209 0.225-0.565 0.036-0.792l-1.268-1.268c-0.227-0.189-0.583-0.173-0.792 0.036l-1.078 1.077c-0.208 0.209-0.556 0.293-0.772 0.187s-0.822-0.552-0.821-0.847V0.767c0-0.295-0.239-0.569-0.531-0.61 0 0-0.411-0.057-0.9-0.056s-0.899 0.057-0.899 0.056c-0.293 0.04-0.532 0.315-0.532 0.61v1.524c0 0.295-0.188 0.601-0.418 0.681s-0.967 0.188-1.176-0.021l-1.078-1.078C3.689 1.665 3.333 1.649 3.107 1.837l-1.268 1.268c-0.189 0.227-0.173 0.583 0.036 0.792l1.077 1.078c0.209 0.209 0.293 0.556 0.187 0.772s-0.552 0.822-0.847 0.822H0.767c-0.295 0-0.569 0.239-0.61 0.531 0 0-0.057 0.411-0.056 0.899s0.057 0.899 0.056 0.9c0.04 0.293 0.315 0.532 0.61 0.532h1.525c0.295 0 0.601 0.188 0.681 0.417 0.079 0.23 0.188 0.967-0.02 1.176l-1.078 1.077C1.667 12.311 1.651 12.667 1.84 12.893l1.267 1.268c0.227 0.189 0.583 0.173 0.792-0.036l1.077-1.077c0.209-0.208 0.556-0.292 0.772-0.187s0.821 0.553 0.822 0.848v1.524c0 0.295 0.239 0.569 0.532 0.61 0 0 0.411 0.057 0.899 0.057s0.899-0.056 0.899-0.057c0.293-0.04 0.531-0.315 0.532-0.609v-1.524c0-0.295 0.188-0.602 0.418-0.681 0.23-0.079 0.967-0.188 1.176 0.021l1.077 1.077c0.209 0.209 0.565 0.225 0.792 0.036l1.268-1.267c0.189-0.227 0.173-0.583-0.036-0.792l-1.078-1.077c-0.209-0.209-0.293-0.557-0.186-0.773 0.106-0.216 0.552-0.822 0.847-0.822h1.525zM8 10.892c-1.597 0-2.891-1.294-2.891-2.892 0-1.596 1.295-2.891 2.891-2.891S10.892 6.404 10.892 8 9.597 10.892 8 10.892z"></path></g><g id="SvgjsG1044"><path d="M7.713 4.71c0 0.211-0.166 0.374-0.379 0.375H3.374c-0.213 0-0.379-0.164-0.379-0.375V1.371c0-0.211 0.166-0.374 0.38-0.375h3.96c0.213 0 0.379 0.164 0.379 0.375V4.71z m4.617 0.427c-0.501-0.11-0.683-0.368-0.683-0.604v-0.864s0.333 0.074 0.413 0.094c0.163 0.042 0.266 0.291 0.27 0.509 0.005 0.218 0 0.863 0 0.863z m1.009 5.244c0-0.01-0.139-1.061-0.139-1.061V4.464c0-0.52-0.171-0.943-0.523-1.298L10.427 0.928c-0.155 0-0.585 0.428-0.585 0.428 0 0.156 1.116 1.264 1.117 1.264l-0.033 1.884c0 0.669 0.544 1.211 1.215 1.211l0.302 0.005-0.107 3.601 0.15 1.235 0.676 3.643c0.025 0.592-0.516 0.944-0.943 0.944-0.395 0-0.853-0.326-0.854-0.747l0.008-6.386c0-0.776-0.63-1.407-1.406-1.407h-1.357c0.096-0.005 0.099-4.181 0.099-5.067V1.371c0-0.756-0.618-1.371-1.374-1.371H3.374C2.616 0 2 0.615 2 1.371V16h6.71l0.005-8.499h1.266a0.528 0.528 0 0 1 0.528 0.527v6.368C10.509 15.251 11.307 16 12.218 16c0.86 0 1.824-0.684 1.824-1.604-0.015-0.212-0.704-4.015-0.704-4.015z"></path></g><g id="SvgjsG1035"><path d="M7.996 16h-0.001c-2.137-0.001-4.145-0.834-5.655-2.345C0.829 12.142-0.002 10.132 0 7.995-0.002 5.861 0.828 3.853 2.338 2.342 3.848 0.832 5.855 0 7.99 0h0.01C10.136 0 12.146 0.832 13.656 2.342c1.51 1.51 2.342 3.518 2.344 5.653-0.002 2.139-0.835 4.148-2.346 5.66-1.512 1.511-3.521 2.344-5.658 2.345z m-0.006-14.161c-1.644 0-3.189 0.64-4.351 1.804-1.162 1.163-1.801 2.708-1.8 4.352-0.001 1.648 0.639 3.196 1.802 4.359 1.163 1.164 2.709 1.805 4.354 1.807 3.398-0.002 6.163-2.768 6.167-6.166-0.002-3.394-2.765-6.155-6.16-6.155h-0.01z"></path><path d="M8.692 7.143V5.35c0.511 0.037 0.91 0.544 0.957 1.062h1.697c0.002-1.741-1.581-2.657-2.672-2.724v-1.175H7.056v1.175c-0.476 0.004-2.622 0.611-2.62 2.558-0.003 1.733 1.545 2.206 2.62 2.358v1.959c-0.783-0.222-0.926-0.824-1.036-1.323h-1.723c0.11 1.949 1.823 2.856 2.759 2.995v1.202h1.636v-1.184c1.294-0.07 2.827-1.187 2.829-2.716-0.002-1.758-1.529-2.256-2.829-2.393zM7.064 6.855c-1.152-0.018-1.175-1.281 0-1.488v1.488z m1.645 3.717V8.883c1.427 0.039 1.586 1.462 0 1.689z"></path></g><g id="SvgjsG1036"><path d="M13.999 2.388c-0.178-0.893-0.747-1.249-1.605-1.605C11.555 0.431 9.539 0.013 8.048 0 6.554 0.013 4.537 0.431 3.692 0.783c-0.852 0.356-1.421 0.711-1.596 1.605L1.455 7.319v6.802h1.105v1.061c-0.004 1.304 1.898 1.304 1.899 0v-1.062H11.636v1.06c-0.002 1.304 1.901 1.304 1.899 0v-1.06h1.106V7.318l-0.642-4.931z m-8.666-1.141h5.43c0.531-0.002 0.531 0.8 0 0.802H5.333c-0.534-0.003-0.534-0.804 0-0.802zM3.505 11.99c-0.501-0.002-0.91-0.411-0.909-0.918-0.001-0.501 0.408-0.91 0.909-0.909 0.507 0 0.916 0.409 0.918 0.909a0.922 0.922 0 0 1-0.918 0.918zM7.981 7.835H3.14c-0.473 0.005-0.572-0.336-0.526-0.677l0.499-3.584c0.069-0.432 0.216-0.718 0.785-0.722H12.199c0.565 0.004 0.713 0.29 0.784 0.722l0.5 3.584c0.043 0.341-0.056 0.682-0.527 0.677H7.981z m4.601 4.156c-0.501-0.003-0.91-0.411-0.91-0.919a0.912 0.912 0 0 1 0.91-0.91c0.507 0 0.916 0.409 0.918 0.909a0.921 0.921 0 0 1-0.918 0.918zM7.981-0.001c0.022 0 0.045 0.001 0.067 0.001 0.022 0 0.045-0.001 0.067-0.001h-0.135z"></path></g><g id="SvgjsG1040"><path d="M15.796 7.558a0.668 0.668 0 0 0-0.057-0.164l-2.897-2.3H7.012c-0.135-0.008-0.208 0.055-0.272 0.13L4.792 7.176 0.531 7.884c-0.059 0.051-0.119 0.102-0.167 0.236l0.01 1.466c0.092 0.235 0.154 0.204 0.225 0.237h0.82c0-1.993 2.968-1.985 2.968 0h7.57c0-1.997 2.946-1.993 2.946 0h0.673c0.113-0.011 0.177-0.11 0.23-0.227l-0.011-2.038z m-6.258-0.095h-4.038c-0.154-0.061-0.175-0.152-0.111-0.265l1.451-1.432c0.033-0.028 0.059-0.066 0.116-0.058h2.582v1.755z m4.182 0h-3.702v-1.755h2.172c0.057-0.008 0.083 0.03 0.116 0.058l1.244 1.254c0.114 0.173 0.345 0.409 0.169 0.444z" fill-rule="evenodd"></path><path d="M2.897 8.621a1.205 1.205 0 1 0 0 2.41 1.205 1.205 0 0 0 0-2.41z m0 1.71a0.509 0.509 0 1 1 0-1.017 0.509 0.509 0 0 1 0 1.018zM13.431 8.62a1.205 1.205 0 1 0 0 2.41 1.205 1.205 0 0 0 0-2.41z m0 1.71a0.509 0.509 0 1 1 0-1.016 0.509 0.509 0 0 1 0 1.018z" fill-rule="evenodd"></path></g><g id="SvgjsG1037"><path d="M7.275 1.252h5.267l0.848 0.856c0.153 0.155 0.15 0.264 0 0.42l-1.034 1.034-0.606-0.606-0.606 0.606-0.597-0.597-0.582 0.58-0.606-0.606-0.792 0.792H7.275V1.251z m5.655 8.143l-0.986-2.545c-0.184-0.487-0.587-0.901-1.349-0.905h-5.178c-0.758 0.003-1.162 0.418-1.349 0.905l-0.985 2.545C2.691 9.445 1.998 9.905 2 10.776v3.24h0.961v1.033c-0.002 1.274 1.802 1.259 1.802 0v-1.035h6.486v1.034c0.004 1.26 1.808 1.275 1.81 0v-1.034h0.961V10.776c-0.003-0.871-0.696-1.331-1.09-1.381z m-9.04 2.665c-0.461 0.002-0.834-0.383-0.832-0.856-0.002-0.476 0.371-0.86 0.832-0.856 0.46-0.004 0.833 0.381 0.832 0.856 0.001 0.473-0.372 0.857-0.832 0.856z m4.12-2.689H4.108l0.743-2.004c0.09-0.284 0.229-0.488 0.559-0.493h5.201c0.324 0.005 0.464 0.208 0.558 0.493l0.744 2.004H8.01z m4.12 2.689c-0.464 0.002-0.837-0.383-0.84-0.856 0.003-0.476 0.376-0.86 0.84-0.856 0.456-0.004 0.829 0.381 0.832 0.856-0.003 0.473-0.376 0.857-0.832 0.856z"></path><path d="M5.433 0C4.069-0.003 2.964 1.113 2.961 2.488c0.003 1.378 1.108 2.494 2.472 2.496 1.361-0.002 2.466-1.118 2.464-2.496C7.899 1.113 6.794-0.003 5.433 0z m-1.082 3.142c-0.365-0.003-0.658-0.3-0.655-0.662-0.003-0.368 0.29-0.664 0.655-0.662 0.358-0.002 0.652 0.294 0.654 0.662-0.003 0.362-0.296 0.659-0.654 0.662z"></path></g><g id="SvgjsG1041"><path d="M14.548 5.951L13.236 2.565C12.991 1.916 12.455 1.365 11.441 1.36H4.548c-1.01 0.005-1.546 0.556-1.795 1.205l-1.312 3.386C0.92 6.019-0.002 6.63 0 7.79V12.102h1.28v1.377c-0.003 1.697 2.398 1.677 2.397 0V12.102h8.635v1.377c0.005 1.677 2.407 1.697 2.408 0V12.102h1.28V7.79c-0.004-1.16-0.926-1.772-1.452-1.838zM2.516 9.5c-0.613 0.002-1.11-0.51-1.107-1.139-0.003-0.634 0.494-1.146 1.107-1.141 0.612-0.005 1.108 0.507 1.108 1.141 0.001 0.629-0.496 1.141-1.108 1.139zM8 5.92H2.806l0.99-2.667c0.119-0.379 0.305-0.65 0.742-0.656H11.462c0.431 0.006 0.617 0.277 0.742 0.656l0.99 2.665H8z m5.484 3.58c-0.618 0.002-1.115-0.51-1.118-1.139 0.003-0.634 0.5-1.146 1.118-1.141 0.607-0.005 1.104 0.507 1.107 1.141-0.004 0.629-0.5 1.141-1.107 1.139z"></path></g><g id="SvgjsG1045"><path d="M12.57 11.336c0.436 0 0.787-0.358 0.788-0.801 0-0.437-0.351-0.796-0.788-0.796-0.438 0-0.789 0.358-0.788 0.796 0 0.443 0.351 0.801 0.788 0.801z m-1.822-0.801c0-1.014 0.814-1.839 1.823-1.839 1.004 0 1.818 0.825 1.818 1.839 0 1.019-0.814 1.843-1.818 1.843-1.008 0-1.822-0.825-1.823-1.843z"></path><path d="M15.279 8.566l-0.004-1.856c0-0.739-0.65-0.661-0.65-0.661H10.946L9.604 3.76H8.814l1.342 2.289-1.016 1.739-2.318-0.004c-0.801-1.662-2.428-1.558-2.428-1.558H0v3.95h0.628c0.084-1.344 1.361-2.409 2.71-2.409 1.349 0 2.629 1.068 2.71 2.409l3.82 0.004c0.081-1.345 1.361-2.413 2.71-2.413 1.349 0 2.633 1.068 2.71 2.415l0.237 0.003c0.263 0 0.475-0.216 0.476-0.482v-1.138h-0.721v0.001z"></path><path d="M3.331 11.336c0.437 0 0.791-0.358 0.79-0.801 0-0.437-0.354-0.796-0.791-0.796-0.434 0-0.789 0.358-0.788 0.796 0 0.443 0.355 0.801 0.788 0.801z m-1.819-0.801c0-1.014 0.815-1.839 1.819-1.839 1.008 0 1.82 0.825 1.819 1.839 0 1.019-0.813 1.843-1.82 1.843-1.004 0-1.819-0.825-1.819-1.843z"></path></g><g id="SvgjsG1046"><path d="M13.383 6.888l-2.486-0.003a0.399 0.399 0 0 1-0.4-0.4V5.205c0-0.222 0.178-0.4 0.397-0.4h1.352c0.069 0 0.131 0.033 0.174 0.084l1.141 1.647c0.025 0.036 0.043 0.08 0.044 0.13 0 0.124-0.098 0.222-0.222 0.222z m2.163 0.208c0-0.332-0.208-0.628-0.52-0.742l-0.734-0.247L12.827 3.992A0.392 0.392 0 0 0 12.525 3.85H10.203a0.683 0.683 0 0 0-0.683 0.683l0.003 2.479H0.001V9.92a0.47 0.47 0 0 0 0.469 0.469h1.257c0.069-1.043 1.116-1.872 2.177-1.872s2.108 0.829 2.181 1.872h4.667c0.076-1.036 1.12-1.857 2.18-1.857 1.058 0 2.101 0.821 2.177 1.857h0.418A0.47 0.47 0 0 0 16 9.92v-0.858h-0.454v-1.966z" fill-rule="evenodd"></path><path d="M12.925 11.359a0.625 0.625 0 0 0 0-1.25c-0.345 0-0.622 0.28-0.621 0.625s0.276 0.625 0.621 0.625z m-1.439-0.625c0-0.796 0.647-1.439 1.439-1.439 0.796 0 1.443 0.644 1.443 1.439s-0.646 1.439-1.442 1.439c-0.792 0-1.439-0.643-1.44-1.439z m-7.582 0.6a0.625 0.625 0 1 0 0-1.25 0.625 0.625 0 0 0 0 1.25z m-1.439-0.626c0-0.796 0.647-1.439 1.439-1.439 0.796 0 1.439 0.643 1.44 1.439s-0.643 1.439-1.44 1.44c-0.792 0-1.439-0.643-1.439-1.44z" fill-rule="evenodd"></path></g><g id="SvgjsG1043"><path d="M5.758 6.784a0.259 0.259 0 0 0 0.258-0.259l0.004-1.624a0.259 0.259 0 0 0-0.258-0.258H2.032a0.259 0.259 0 0 0-0.258 0.258l-0.003 1.625A0.259 0.259 0 0 0 2.029 6.784h3.729z m5.339-2.148c0.065 0 0.116-0.054 0.116-0.12a0.12 0.12 0 0 0-0.021-0.069l-0.589-0.847a0.124 0.124 0 0 0-0.095-0.043h-1.298c-0.116 0-0.21 0.094-0.21 0.21v0.658c0 0.116 0.094 0.211 0.211 0.211h1.886zM10.704 3.044c0.12 0 0.229 0.054 0.302 0.138l1.123 1.613c0.026 0.04 0.044 0.084 0.043 0.135 0 0.12-0.102 0.222-0.225 0.222l-1.93-0.004a1.202 1.202 0 0 0-1.203 1.203v1.956H0.001V4.268S-0.072 3.04 1.197 3.04l9.507 0.004z"></path><path d="M13.383 8.568l-2.486-0.003a0.398 0.398 0 0 1-0.4-0.4v-1.28c0-0.222 0.178-0.4 0.397-0.4h1.352c0.069 0 0.131 0.033 0.174 0.084l1.141 1.647c0.025 0.036 0.043 0.08 0.044 0.13 0 0.124-0.098 0.222-0.222 0.222z m2.163 1.374v-0.846a0.789 0.789 0 0 0-0.52-0.742l-0.734-0.247-1.465-2.115a0.392 0.392 0 0 0-0.302-0.142H10.203a0.683 0.683 0 0 0-0.683 0.683l0.003 2.479H0.001V10.8a0.47 0.47 0 0 0 0.469 0.469h1.257c0.069-1.043 1.116-1.872 2.177-1.872s2.108 0.829 2.181 1.872h4.667c0.076-1.036 1.12-1.857 2.18-1.857 1.058 0 2.101 0.821 2.177 1.857h0.418A0.471 0.471 0 0 0 16 10.8v-0.858h-0.454z"></path><path d="M12.925 12.239a0.625 0.625 0 0 0 0-1.25c-0.345 0-0.622 0.28-0.621 0.625s0.276 0.625 0.621 0.625z m-1.439-0.625c0-0.796 0.647-1.439 1.439-1.439 0.796 0 1.443 0.644 1.443 1.439s-0.646 1.439-1.442 1.439c-0.792 0-1.439-0.643-1.44-1.439z m-7.582 0.6a0.625 0.625 0 1 0 0-1.25 0.625 0.625 0 0 0 0 1.25z m-1.439-0.626c0-0.796 0.647-1.439 1.439-1.439 0.796 0 1.439 0.643 1.44 1.439s-0.643 1.439-1.44 1.44c-0.792 0-1.439-0.643-1.439-1.44z"></path></g><g id="SvgjsG1038"><path d="M12.209 8.39L12.048 5.996c-0.029-0.347-0.32-0.616-0.675-0.616H4.785a0.676 0.676 0 0 0-0.677 0.616l-0.157 2.395h8.258z m1.387 2.457c0-0.491-0.396-0.892-0.887-0.891a0.894 0.894 0 0 0-0.892 0.891c0 0.491 0.4 0.888 0.892 0.888s0.888-0.396 0.888-0.888M10.999 12.181V9.937a0.405 0.405 0 0 0-0.404-0.405h-5.048c-0.217 0-0.398 0.181-0.399 0.405V12.181h5.851z m-7.55-0.446a0.888 0.888 0 0 0 0.888-0.888c0-0.491-0.399-0.892-0.888-0.891-0.491 0-0.89 0.4-0.89 0.891a0.888 0.888 0 0 0 0.89 0.888M11.373 4.75c0.682 0 1.243 0.529 1.299 1.198l0.165 2.467L14.478 9.408l-0.004 4.168H13.741l0.004 1.363c0 0.59-0.477 1.061-1.065 1.061a1.058 1.058 0 0 1-1.06-1.061v-1.363H4.535l0.005 1.363c0 0.59-0.477 1.061-1.066 1.061a1.058 1.058 0 0 1-1.059-1.061v-1.363H1.684L1.68 9.408l1.641-0.992 0.165-2.468c0.052-0.669 0.613-1.198 1.299-1.197H11.373z"></path><path d="M13.301 0c0.648 0 1.172 0.525 1.173 1.169v7.567l-1.08-0.663-0.14-2.209c-0.097-0.952-0.904-1.697-1.881-1.698H4.784c-0.98 0-1.782 0.745-1.878 1.698l-0.143 2.209L1.68 8.736 1.684 1.169C1.684 0.525 2.208 0 2.852 0h10.449z"></path></g><g id="SvgjsG1047"><use xlink:href="#SvgjsG1035" transform="translate(0, 0) scale(2)" fill="#0f457b"></use><use xlink:href="#SvgjsG1036" transform="translate(0, 48) scale(2)" fill="#0f457b"></use><use xlink:href="#SvgjsG1037" transform="translate(0, 96) scale(2)" fill="#0f457b"></use><use xlink:href="#SvgjsG1035" transform="translate(0, 144) scale(2)" fill="#0f457b"></use><use xlink:href="#SvgjsG1037" transform="translate(0, 192) scale(2)" fill="#0f457b"></use><use xlink:href="#SvgjsG1038" transform="translate(0, 240) scale(2)" fill="#0f457b"></use><use xlink:href="#SvgjsG1039" transform="translate(0, 288) scale(2)" fill="#0f457b"></use><use xlink:href="#SvgjsG1037" transform="translate(0, 336) scale(2)" fill="#0f457b"></use><use xlink:href="#SvgjsG1039" transform="translate(0, 384) scale(2)" fill="#0f457b"></use><use xlink:href="#SvgjsG1040" transform="translate(0, 432) scale(2)" fill="#0f457b"></use><use xlink:href="#SvgjsG1041" transform="translate(48, 0) scale(2)" fill="#0f457b"></use><use xlink:href="#SvgjsG1042" transform="translate(48, 48) scale(2)" fill="#0f457b"></use><use xlink:href="#SvgjsG1038" transform="translate(48, 96) scale(2)" fill="#0f457b"></use><use xlink:href="#SvgjsG1037" transform="translate(48, 144) scale(2)" fill="#0f457b"></use><use xlink:href="#SvgjsG1041" transform="translate(48, 192) scale(2)" fill="#0f457b"></use><use xlink:href="#SvgjsG1043" transform="translate(48, 240) scale(2)" fill="#0f457b"></use><use xlink:href="#SvgjsG1044" transform="translate(48, 288) scale(2)" fill="#0f457b"></use><use xlink:href="#SvgjsG1037" transform="translate(48, 336) scale(2)" fill="#0f457b"></use><use xlink:href="#SvgjsG1045" transform="translate(48, 384) scale(2)" fill="#0f457b"></use><use xlink:href="#SvgjsG1046" transform="translate(48, 432) scale(2)" fill="#0f457b"></use><use xlink:href="#SvgjsG1045" transform="translate(96, 0) scale(2)" fill="#0f457b"></use><use xlink:href="#SvgjsG1036" transform="translate(96, 48) scale(2)" fill="#0f457b"></use><use xlink:href="#SvgjsG1035" transform="translate(96, 96) scale(2)" fill="#0f457b"></use><use xlink:href="#SvgjsG1041" transform="translate(96, 144) scale(2)" fill="#0f457b"></use><use xlink:href="#SvgjsG1038" transform="translate(96, 192) scale(2)" fill="#0f457b"></use><use xlink:href="#SvgjsG1040" transform="translate(96, 240) scale(2)" fill="#0f457b"></use><use xlink:href="#SvgjsG1042" transform="translate(96, 288) scale(2)" fill="#0f457b"></use><use xlink:href="#SvgjsG1044" transform="translate(96, 336) scale(2)" fill="#0f457b"></use><use xlink:href="#SvgjsG1039" transform="translate(96, 384) scale(2)" fill="#0f457b"></use><use xlink:href="#SvgjsG1039" transform="translate(96, 432) scale(2)" fill="#0f457b"></use><use xlink:href="#SvgjsG1042" transform="translate(144, 0) scale(2)" fill="#0f457b"></use><use xlink:href="#SvgjsG1046" transform="translate(144, 48) scale(2)" fill="#0f457b"></use><use xlink:href="#SvgjsG1036" transform="translate(144, 96) scale(2)" fill="#0f457b"></use><use xlink:href="#SvgjsG1043" transform="translate(144, 144) scale(2)" fill="#0f457b"></use><use xlink:href="#SvgjsG1042" transform="translate(144, 192) scale(2)" fill="#0f457b"></use><use xlink:href="#SvgjsG1041" transform="translate(144, 240) scale(2)" fill="#0f457b"></use><use xlink:href="#SvgjsG1040" transform="translate(144, 288) scale(2)" fill="#0f457b"></use><use xlink:href="#SvgjsG1036" transform="translate(144, 336) scale(2)" fill="#0f457b"></use><use xlink:href="#SvgjsG1041" transform="translate(144, 384) scale(2)" fill="#0f457b"></use><use xlink:href="#SvgjsG1039" transform="translate(144, 432) scale(2)" fill="#0f457b"></use><use xlink:href="#SvgjsG1040" transform="translate(192, 0) scale(2)" fill="#0f457b"></use><use xlink:href="#SvgjsG1040" transform="translate(192, 48) scale(2)" fill="#0f457b"></use><use xlink:href="#SvgjsG1045" transform="translate(192, 96) scale(2)" fill="#0f457b"></use><use xlink:href="#SvgjsG1037" transform="translate(192, 144) scale(2)" fill="#0f457b"></use><use xlink:href="#SvgjsG1037" transform="translate(192, 192) scale(2)" fill="#0f457b"></use><use xlink:href="#SvgjsG1044" transform="translate(192, 240) scale(2)" fill="#0f457b"></use><use xlink:href="#SvgjsG1039" transform="translate(192, 288) scale(2)" fill="#0f457b"></use><use xlink:href="#SvgjsG1040" transform="translate(192, 336) scale(2)" fill="#0f457b"></use><use xlink:href="#SvgjsG1045" transform="translate(192, 384) scale(2)" fill="#0f457b"></use><use xlink:href="#SvgjsG1038" transform="translate(192, 432) scale(2)" fill="#0f457b"></use><use xlink:href="#SvgjsG1045" transform="translate(240, 0) scale(2)" fill="#0f457b"></use><use xlink:href="#SvgjsG1044" transform="translate(240, 48) scale(2)" fill="#0f457b"></use><use xlink:href="#SvgjsG1038" transform="translate(240, 96) scale(2)" fill="#0f457b"></use><use xlink:href="#SvgjsG1041" transform="translate(240, 144) scale(2)" fill="#0f457b"></use><use xlink:href="#SvgjsG1038" transform="translate(240, 192) scale(2)" fill="#0f457b"></use><use xlink:href="#SvgjsG1043" transform="translate(240, 240) scale(2)" fill="#0f457b"></use><use xlink:href="#SvgjsG1041" transform="translate(240, 288) scale(2)" fill="#0f457b"></use><use xlink:href="#SvgjsG1043" transform="translate(240, 336) scale(2)" fill="#0f457b"></use><use xlink:href="#SvgjsG1045" transform="translate(240, 384) scale(2)" fill="#0f457b"></use><use xlink:href="#SvgjsG1045" transform="translate(240, 432) scale(2)" fill="#0f457b"></use><use xlink:href="#SvgjsG1038" transform="translate(288, 0) scale(2)" fill="#0f457b"></use><use xlink:href="#SvgjsG1043" transform="translate(288, 48) scale(2)" fill="#0f457b"></use><use xlink:href="#SvgjsG1044" transform="translate(288, 96) scale(2)" fill="#0f457b"></use><use xlink:href="#SvgjsG1044" transform="translate(288, 144) scale(2)" fill="#0f457b"></use><use xlink:href="#SvgjsG1036" transform="translate(288, 192) scale(2)" fill="#0f457b"></use><use xlink:href="#SvgjsG1039" transform="translate(288, 240) scale(2)" fill="#0f457b"></use><use xlink:href="#SvgjsG1044" transform="translate(288, 288) scale(2)" fill="#0f457b"></use><use xlink:href="#SvgjsG1042" transform="translate(288, 336) scale(2)" fill="#0f457b"></use><use xlink:href="#SvgjsG1045" transform="translate(288, 384) scale(2)" fill="#0f457b"></use><use xlink:href="#SvgjsG1042" transform="translate(288, 432) scale(2)" fill="#0f457b"></use><use xlink:href="#SvgjsG1042" transform="translate(336, 0) scale(2)" fill="#0f457b"></use><use xlink:href="#SvgjsG1038" transform="translate(336, 48) scale(2)" fill="#0f457b"></use><use xlink:href="#SvgjsG1045" transform="translate(336, 96) scale(2)" fill="#0f457b"></use><use xlink:href="#SvgjsG1040" transform="translate(336, 144) scale(2)" fill="#0f457b"></use><use xlink:href="#SvgjsG1039" transform="translate(336, 192) scale(2)" fill="#0f457b"></use><use xlink:href="#SvgjsG1041" transform="translate(336, 240) scale(2)" fill="#0f457b"></use><use xlink:href="#SvgjsG1035" transform="translate(336, 288) scale(2)" fill="#0f457b"></use><use xlink:href="#SvgjsG1038" transform="translate(336, 336) scale(2)" fill="#0f457b"></use><use xlink:href="#SvgjsG1043" transform="translate(336, 384) scale(2)" fill="#0f457b"></use><use xlink:href="#SvgjsG1040" transform="translate(336, 432) scale(2)" fill="#0f457b"></use><use xlink:href="#SvgjsG1045" transform="translate(384, 0) scale(2)" fill="#0f457b"></use><use xlink:href="#SvgjsG1042" transform="translate(384, 48) scale(2)" fill="#0f457b"></use><use xlink:href="#SvgjsG1040" transform="translate(384, 96) scale(2)" fill="#0f457b"></use><use xlink:href="#SvgjsG1045" transform="translate(384, 144) scale(2)" fill="#0f457b"></use><use xlink:href="#SvgjsG1045" transform="translate(384, 192) scale(2)" fill="#0f457b"></use><use xlink:href="#SvgjsG1038" transform="translate(384, 240) scale(2)" fill="#0f457b"></use><use xlink:href="#SvgjsG1040" transform="translate(384, 288) scale(2)" fill="#0f457b"></use><use xlink:href="#SvgjsG1046" transform="translate(384, 336) scale(2)" fill="#0f457b"></use><use xlink:href="#SvgjsG1036" transform="translate(384, 384) scale(2)" fill="#0f457b"></use><use xlink:href="#SvgjsG1046" transform="translate(384, 432) scale(2)" fill="#0f457b"></use><use xlink:href="#SvgjsG1046" transform="translate(432, 0) scale(2)" fill="#0f457b"></use><use xlink:href="#SvgjsG1037" transform="translate(432, 48) scale(2)" fill="#0f457b"></use><use xlink:href="#SvgjsG1040" transform="translate(432, 96) scale(2)" fill="#0f457b"></use><use xlink:href="#SvgjsG1039" transform="translate(432, 144) scale(2)" fill="#0f457b"></use><use xlink:href="#SvgjsG1037" transform="translate(432, 192) scale(2)" fill="#0f457b"></use><use xlink:href="#SvgjsG1042" transform="translate(432, 240) scale(2)" fill="#0f457b"></use><use xlink:href="#SvgjsG1040" transform="translate(432, 288) scale(2)" fill="#0f457b"></use><use xlink:href="#SvgjsG1046" transform="translate(432, 336) scale(2)" fill="#0f457b"></use><use xlink:href="#SvgjsG1035" transform="translate(432, 384) scale(2)" fill="#0f457b"></use><use xlink:href="#SvgjsG1038" transform="translate(432, 432) scale(2)" fill="#0f457b"></use></g></defs></svg>