<svg width="393" height="331" viewBox="0 0 393 331" fill="none" xmlns="http://www.w3.org/2000/svg">
<path d="M203.062 270.199C268.72 270.199 321.946 215.028 321.946 146.972C321.946 78.9154 268.72 23.7447 203.062 23.7447C137.404 23.7447 84.1777 78.9154 84.1777 146.972C84.1777 215.028 137.404 270.199 203.062 270.199Z" fill="#3F3D56"/>
<path d="M128.216 156.864C131.169 153.2 134.861 150.253 139.033 148.23C143.205 146.208 147.755 145.16 152.36 145.16C156.966 145.16 161.516 146.208 165.688 148.23C169.86 150.253 173.552 153.2 176.505 156.864C181.507 151.914 184.981 145.538 186.487 138.542C187.993 131.546 187.464 124.244 184.967 117.559C182.469 110.875 178.115 105.108 172.456 100.988C166.796 96.8686 160.085 94.5809 153.172 94.4146C146.258 94.2483 139.452 96.2108 133.614 100.054C127.777 103.897 123.169 109.448 120.375 116.005C117.581 122.562 116.726 129.831 117.917 136.892C119.109 143.953 122.294 150.49 127.069 155.675C127.442 156.08 127.825 156.476 128.216 156.864Z" fill="white"/>
<path d="M222.624 156.864C225.577 153.2 229.27 150.253 233.442 148.23C237.614 146.208 242.163 145.16 246.769 145.16C251.374 145.16 255.924 146.208 260.096 148.23C264.268 150.253 267.96 153.2 270.913 156.864C275.915 151.914 279.389 145.538 280.895 138.542C282.401 131.546 281.872 124.244 279.375 117.559C276.877 110.875 272.523 105.108 266.864 100.988C261.205 96.8686 254.494 94.5809 247.58 94.4146C240.666 94.2483 233.86 96.2108 228.022 100.054C222.185 103.897 217.578 109.448 214.784 116.005C211.99 122.562 211.134 129.831 212.326 136.892C213.517 143.953 216.702 150.49 221.477 155.675C221.851 156.08 222.233 156.476 222.624 156.864Z" fill="white"/>
<path d="M140.434 130.774C147.077 130.774 152.462 125.192 152.462 118.307C152.462 111.421 147.077 105.839 140.434 105.839C133.791 105.839 128.406 111.421 128.406 118.307C128.406 125.192 133.791 130.774 140.434 130.774Z" fill="#3F3D56"/>
<path d="M234.838 130.774C241.481 130.774 246.866 125.192 246.866 118.307C246.866 111.421 241.481 105.839 234.838 105.839C228.196 105.839 222.811 111.421 222.811 118.307C222.811 125.192 228.196 130.774 234.838 130.774Z" fill="#3F3D56"/>
<path d="M117.395 192.276C125.119 192.276 131.381 185.785 131.381 177.779C131.381 169.772 125.119 163.281 117.395 163.281C109.67 163.281 103.408 169.772 103.408 177.779C103.408 185.785 109.67 192.276 117.395 192.276Z" fill="#6C63FF"/>
<path d="M278.238 192.276C285.963 192.276 292.225 185.785 292.225 177.779C292.225 169.772 285.963 163.281 278.238 163.281C270.514 163.281 264.252 169.772 264.252 177.779C264.252 185.785 270.514 192.276 278.238 192.276Z" fill="#6C63FF"/>
<path d="M197.818 148.783L187.328 195.9L204.81 177.779L197.818 148.783Z" fill="#6C63FF"/>
<path d="M251.717 330L239.807 319.64L240.084 330H236.386L236.09 319.045L220.01 330H213.279L235.97 314.541L235.091 282.08L234.434 257.564L238.124 257.459L238.79 282.08L239.668 314.512L257.467 330H251.717Z" fill="#3F3D56"/>
<path d="M195.766 330L183.857 319.64L184.134 330H180.445L180.149 319.045L164.069 330H157.338L180.02 314.541L179.142 282.08L178.485 257.564L182.183 257.459L182.849 282.08L183.718 314.512L201.517 330H195.766Z" fill="#3F3D56"/>
<path d="M204.81 14.6839C201.548 14.6839 198.67 17.3104 196.746 21.3446C195.051 15.2783 191.488 11.0596 187.327 11.0596C187.044 11.0888 186.764 11.1376 186.487 11.2058C184.888 4.729 181.171 0.186646 176.837 0.186646C171.044 0.186646 166.348 8.30006 166.348 18.3083C166.348 28.3165 171.044 36.4299 176.837 36.4299C177.12 36.4008 177.401 36.3519 177.677 36.2837C179.277 42.7606 182.994 47.3029 187.327 47.3029C190.589 47.3029 193.467 44.6764 195.391 40.6422C197.087 46.7085 200.649 50.9272 204.81 50.9272C210.603 50.9272 215.3 42.8138 215.3 32.8055C215.3 22.7973 210.604 14.6839 204.81 14.6839Z" fill="#3F3D56"/>
<path d="M90.9736 150.806L25.4839 139.796C22.1837 139.241 18.8232 138.685 15.5125 139.168C12.2018 139.651 8.88771 141.34 7.19997 144.332C6.38885 145.769 5.99562 147.419 6.0675 149.083C6.13938 150.747 6.67332 152.354 7.60516 153.711C8.53699 155.067 9.82709 156.116 11.3203 156.731C12.8135 157.346 14.4462 157.501 16.0224 157.178C12.4476 157.057 8.6904 156.978 5.51825 158.69C2.34609 160.403 0.0999174 164.563 1.64645 167.905C2.11051 168.828 2.73831 169.652 3.49695 170.333C5.88417 172.551 8.82849 174.023 11.9892 174.578C15.1499 175.134 18.3978 174.751 21.357 173.472C18.946 177.056 14.1619 177.588 10.0235 178.418C5.88513 179.248 1.10103 181.674 0.94724 186.041C0.774434 190.947 6.40726 193.554 11.0444 194.553C35.8052 199.834 61.5068 197.662 85.1158 188.295C87.769 187.349 90.2804 186.019 92.5759 184.347C95.1488 182.322 97.1041 179.571 98.2079 176.424C99.3117 173.276 99.5171 169.866 98.7995 166.601C98.082 163.336 96.4718 160.355 94.1618 158.013C91.8519 155.672 88.94 154.071 85.7747 153.401" fill="#3F3D56"/>
<path d="M373.65 206.447C362.841 182.76 345.72 162.772 324.309 148.842C321.984 147.213 319.45 145.931 316.781 145.035C313.673 144.121 310.377 144.154 307.287 145.131C304.196 146.108 301.443 147.987 299.357 150.544C297.271 153.1 295.939 156.226 295.522 159.547C295.105 162.867 295.62 166.242 297.006 169.267L291.881 166.52C302.17 186.811 312.46 207.101 322.749 227.392C324.304 230.46 325.896 233.578 328.258 236.031C330.62 238.483 333.914 240.213 337.235 239.814C338.553 239.66 339.817 239.181 340.92 238.417C342.023 237.652 342.932 236.625 343.573 235.421C344.213 234.216 344.565 232.87 344.6 231.496C344.635 230.121 344.351 228.758 343.772 227.521C345.216 229.63 347.115 231.362 349.318 232.578C352.545 234.176 357.102 233.537 358.75 230.247C359.183 229.308 359.44 228.293 359.51 227.255C359.785 223.944 359.151 220.621 357.68 217.668C356.209 214.716 353.961 212.256 351.197 210.572C355.409 210.416 358.695 214.059 361.822 216.989C364.949 219.919 369.695 222.424 373.154 219.927C377.041 217.122 375.667 210.889 373.65 206.447Z" fill="#3F3D56"/>
<path d="M392.036 331H24.6712C24.4155 331 24.1702 330.895 23.9894 330.707C23.8086 330.52 23.707 330.266 23.707 330.001C23.707 329.735 23.8086 329.481 23.9894 329.294C24.1702 329.106 24.4155 329.001 24.6712 329.001H392.036C392.292 329.001 392.537 329.106 392.718 329.294C392.899 329.481 393 329.735 393 330.001C393 330.266 392.899 330.52 392.718 330.707C392.537 330.895 392.292 331 392.036 331Z" fill="#CACACA"/>
</svg>
